<?xml version="1.0" standalone="no"?>
<!DOCTYPE svg PUBLIC "-//W3C//DTD SVG 20010904//EN"
 "http://www.w3.org/TR/2001/REC-SVG-20010904/DTD/svg10.dtd">
<svg version="1.0" xmlns="http://www.w3.org/2000/svg"
 width="440.000000pt" height="440.000000pt" viewBox="0 0 440.000000 440.000000"
 preserveAspectRatio="xMidYMid meet">
<metadata>
Created by potrace 1.14, written by Peter Selinger 2001-2017
</metadata>
<g transform="translate(0.000000,440.000000) scale(0.100000,-0.100000)"
fill="#000000" stroke="none">
<path d="M870 3075 l-742 -1285 163 -283 c89 -155 167 -290 174 -299 9 -14 95
129 536 893 l524 909 94 -2 93 -3 64 -110 c35 -60 61 -116 58 -124 -2 -8 -259
-455 -570 -993 l-565 -978 210 -362 209 -363 498 -3 499 -2 565 980 565 980
87 0 86 0 66 -115 c36 -63 66 -120 66 -126 0 -6 -220 -393 -490 -860 -269
-466 -490 -851 -490 -854 0 -3 155 -5 344 -5 l344 0 496 860 497 860 -237 410
-237 410 -443 0 -444 0 -23 -37 c-13 -21 -265 -458 -561 -970 l-539 -933 -224
0 -224 0 15 28 c8 15 311 540 674 1167 l658 1140 95 0 94 0 55 -97 55 -97 348
-1 349 0 -25 43 c-14 23 -214 371 -446 772 -232 402 -425 731 -429 732 -4 2
-133 -215 -287 -482 -154 -267 -283 -485 -286 -485 -3 0 -131 218 -285 485
-153 266 -282 485 -285 485 -4 0 -341 -578 -749 -1285z"/>
</g>
</svg>
